<svg width="162" height="36" viewBox="0 0 162 36" fill="none" xmlns="http://www.w3.org/2000/svg">
<g clip-path="url(#clip0_122_594)">
<path fill-rule="evenodd" clip-rule="evenodd" d="M3.85714 0C1.72691 0 0 1.72691 0 3.85714V32.1429C0 34.2732 1.72689 36 3.85714 36H27C29.1303 36 30.8571 34.2732 30.8571 32.1429V3.85714C30.8571 1.72691 29.1303 0 27 0H3.85714ZM2.57143 3.85714C2.57143 3.14707 3.14707 2.57143 3.85714 2.57143H5.14286V33.4286H3.85714C3.14707 33.4286 2.57143 32.853 2.57143 32.1429V3.85714ZM18.7786 13.5679C19.0962 12.9327 19.8684 12.6753 20.5035 12.9929C21.1387 13.3105 21.3961 14.0827 21.0785 14.7178L17.2214 22.4321C16.9038 23.0673 16.1316 23.3247 15.4965 23.0071C14.8613 22.6895 14.6039 21.9173 14.9215 21.2822L18.7786 13.5679ZM14.0877 14.198C14.5898 14.7001 14.5898 15.5142 14.0877 16.0163L12.104 18L14.0877 19.9837C14.5898 20.4858 14.5898 21.2999 14.0877 21.802C13.5856 22.3041 12.7715 22.3041 12.2694 21.802L9.37659 18.9091C8.87451 18.4071 8.87451 17.5929 9.37659 17.0909L12.2694 14.198C12.7715 13.6959 13.5856 13.6959 14.0877 14.198ZM21.9123 16.0163C21.4102 15.5142 21.4102 14.7001 21.9123 14.198C22.4144 13.6959 23.2285 13.6959 23.7306 14.198L26.6234 17.0909C27.1255 17.5929 27.1255 18.4071 26.6234 18.9091L23.7306 21.802C23.2285 22.3041 22.4144 22.3041 21.9123 21.802C21.4102 21.2999 21.4102 20.4858 21.9123 19.9837L23.896 18L21.9123 16.0163Z" fill="#062630"/>
<path d="M7.42859 12H29.4286V24H7.42859V12Z" fill="#062630"/>
<path d="M14.6828 12.6953L11.9478 9.94775M20.4522 18.4609L17.6542 15.6628M16.061 16.3877V22.2321M18.1641 24.3367C18.1641 25.4999 17.2221 26.4419 16.059 26.4419C14.8958 26.4419 13.9538 25.4999 13.9538 24.3367C13.9538 23.1737 14.8958 22.2317 16.059 22.2317C17.2221 22.2317 18.1641 23.1737 18.1641 24.3367ZM24.0672 19.9197C24.0672 21.0829 23.1252 22.0249 21.9622 22.0249C20.799 22.0249 19.857 21.0829 19.857 19.9197C19.857 18.7567 20.799 17.8147 21.9622 17.8147C23.1252 17.8147 24.0672 18.7567 24.0672 19.9197ZM18.1641 14.2838C18.1641 15.447 17.2221 16.389 16.059 16.389C14.8958 16.389 13.9538 15.447 13.9538 14.2838C13.9538 13.1207 14.8958 12.1787 16.059 12.1787C17.2221 12.1787 18.1641 13.1207 18.1641 14.2838Z" stroke="#FF9A60" stroke-width="1.42162" stroke-linecap="round" stroke-linejoin="round"/>
<path d="M52.1969 13.32V25H49.4669V13.32H45.4269V11.17H56.3569L56.0769 13.32H52.1969ZM59.5091 20.51C59.5625 21.17 59.7125 21.7067 59.9591 22.12C60.2125 22.5333 60.5358 22.8367 60.9291 23.03C61.3225 23.2233 61.7591 23.32 62.2391 23.32C62.7458 23.32 63.2225 23.24 63.6691 23.08C64.1158 22.92 64.5558 22.6967 64.9891 22.41L66.0891 23.92C65.5958 24.3333 65.0058 24.6667 64.3191 24.92C63.6391 25.1733 62.8891 25.3 62.0691 25.3C60.9225 25.3 59.9558 25.0633 59.1691 24.59C58.3891 24.1167 57.7991 23.46 57.3991 22.62C56.9991 21.78 56.7991 20.8133 56.7991 19.72C56.7991 18.6667 56.9958 17.7167 57.3891 16.87C57.7825 16.0233 58.3491 15.3533 59.0891 14.86C59.8291 14.36 60.7225 14.11 61.7691 14.11C62.7425 14.11 63.5825 14.3233 64.2891 14.75C64.9958 15.1767 65.5425 15.79 65.9291 16.59C66.3158 17.3833 66.5091 18.34 66.5091 19.46C66.5091 19.64 66.5025 19.8233 66.4891 20.01C66.4825 20.1967 66.4725 20.3633 66.4591 20.51H59.5091ZM61.7791 15.97C61.1391 15.97 60.6125 16.2 60.1991 16.66C59.7925 17.1133 59.5525 17.8333 59.4791 18.82H63.9391C63.9258 17.9267 63.7391 17.23 63.3791 16.73C63.0258 16.2233 62.4925 15.97 61.7791 15.97ZM73.3813 23.18C73.848 23.18 74.2846 23.0933 74.6913 22.92C75.1046 22.7467 75.5013 22.5267 75.8813 22.26L77.0813 23.95C76.6146 24.3433 76.0513 24.6667 75.3913 24.92C74.7313 25.1733 74.0246 25.3 73.2713 25.3C72.1646 25.3 71.2146 25.07 70.4213 24.61C69.6346 24.1433 69.028 23.4967 68.6013 22.67C68.1813 21.8367 67.9713 20.87 67.9713 19.77C67.9713 18.6833 68.1846 17.7133 68.6113 16.86C69.0446 16 69.658 15.3267 70.4513 14.84C71.2513 14.3533 72.2046 14.11 73.3113 14.11C74.0713 14.11 74.758 14.22 75.3713 14.44C75.9913 14.6533 76.558 14.9733 77.0713 15.4L75.9013 17.02C75.508 16.7467 75.1013 16.54 74.6813 16.4C74.268 16.2533 73.838 16.18 73.3913 16.18C72.6113 16.18 71.9746 16.4633 71.4813 17.03C70.9946 17.59 70.7513 18.5033 70.7513 19.77C70.7513 20.6033 70.8646 21.27 71.0913 21.77C71.3246 22.27 71.638 22.63 72.0313 22.85C72.4313 23.07 72.8813 23.18 73.3813 23.18ZM81.4835 9.93V15.6C81.9235 15.1 82.4168 14.7267 82.9635 14.48C83.5168 14.2333 84.0935 14.11 84.6935 14.11C85.6668 14.11 86.3968 14.3867 86.8835 14.94C87.3768 15.4867 87.6235 16.2567 87.6235 17.25V25H84.9835V17.84C84.9835 17.2 84.8835 16.7467 84.6835 16.48C84.4902 16.2133 84.1568 16.08 83.6835 16.08C83.4035 16.08 83.1302 16.1467 82.8635 16.28C82.6035 16.4067 82.3568 16.58 82.1235 16.8C81.8968 17.02 81.6835 17.2667 81.4835 17.54V25H78.8435V10.19L81.4835 9.93ZM89.6357 25V14.41H91.9357L92.1257 15.72C92.579 15.1867 93.089 14.7867 93.6557 14.52C94.2224 14.2467 94.8324 14.11 95.4857 14.11C96.439 14.11 97.1657 14.3867 97.6657 14.94C98.1657 15.4867 98.4157 16.2567 98.4157 17.25V25H95.7757V18.28C95.7757 17.7467 95.7424 17.32 95.6757 17C95.609 16.6733 95.4824 16.44 95.2957 16.3C95.109 16.1533 94.839 16.08 94.4857 16.08C94.199 16.08 93.9224 16.1433 93.6557 16.27C93.3957 16.3967 93.149 16.5667 92.9157 16.78C92.689 16.9933 92.4757 17.23 92.2757 17.49V25H89.6357ZM104.828 14.11C105.881 14.11 106.775 14.34 107.508 14.8C108.241 15.26 108.798 15.91 109.178 16.75C109.565 17.5833 109.758 18.56 109.758 19.68C109.758 20.8267 109.565 21.82 109.178 22.66C108.791 23.5 108.231 24.15 107.498 24.61C106.765 25.07 105.871 25.3 104.818 25.3C103.771 25.3 102.878 25.0767 102.138 24.63C101.405 24.1767 100.845 23.5333 100.458 22.7C100.071 21.86 99.8779 20.86 99.8779 19.7C99.8779 18.5933 100.071 17.62 100.458 16.78C100.845 15.94 101.408 15.2867 102.148 14.82C102.888 14.3467 103.781 14.11 104.828 14.11ZM104.828 16.1C104.088 16.1 103.535 16.39 103.168 16.97C102.808 17.55 102.628 18.46 102.628 19.7C102.628 20.9533 102.808 21.87 103.168 22.45C103.528 23.0233 104.078 23.31 104.818 23.31C105.558 23.31 106.108 23.0233 106.468 22.45C106.828 21.87 107.008 20.9467 107.008 19.68C107.008 18.4467 106.828 17.5433 106.468 16.97C106.108 16.39 105.561 16.1 104.828 16.1Z" fill="#062630"/>
<path d="M122.975 22.6333C123.454 22.6333 123.901 22.5444 124.318 22.3667C124.736 22.1889 125.142 21.9632 125.539 21.6897L126.77 23.4231C126.291 23.8265 125.713 24.1581 125.036 24.4179C124.359 24.6778 123.635 24.8077 122.862 24.8077C121.72 24.8077 120.742 24.5718 119.929 24.1C119.122 23.6282 118.503 22.965 118.072 22.1103C117.642 21.2556 117.426 20.2641 117.426 19.1359C117.426 18.0214 117.645 17.0265 118.083 16.1513C118.527 15.2761 119.156 14.5889 119.97 14.0897C120.79 13.5838 121.768 13.3308 122.903 13.3308C123.683 13.3308 124.387 13.4436 125.016 13.6692C125.652 13.888 126.233 14.2162 126.759 14.6538L125.559 16.3154C125.156 16.0419 124.739 15.8299 124.308 15.6795C123.877 15.5291 123.436 15.4538 122.985 15.4538C122.185 15.4538 121.532 15.7444 121.026 16.3256C120.527 16.9 120.277 17.8368 120.277 19.1359C120.277 20.4214 120.534 21.3274 121.047 21.8538C121.559 22.3735 122.202 22.6333 122.975 22.6333ZM133.782 9.3V21.341C133.782 21.8128 133.922 22.1479 134.203 22.3462C134.483 22.5444 134.856 22.6436 135.321 22.6436C135.615 22.6436 135.898 22.6128 136.172 22.5513C136.445 22.4829 136.705 22.4009 136.951 22.3051L137.618 24.1513C137.276 24.3291 136.859 24.4829 136.367 24.6128C135.881 24.7427 135.317 24.8077 134.674 24.8077C133.492 24.8077 132.596 24.4692 131.987 23.7923C131.379 23.1154 131.074 22.2026 131.074 21.0538V11.2179H127.823V9.3H133.782ZM142.425 13.6385V21.1667C142.425 21.7547 142.542 22.1684 142.774 22.4077C143.006 22.647 143.345 22.7667 143.789 22.7667C144.213 22.7667 144.627 22.6402 145.03 22.3872C145.434 22.1274 145.762 21.7991 146.015 21.4026V13.6385H148.723V24.5H146.364L146.22 23.1667C145.83 23.7 145.331 24.1068 144.723 24.3872C144.114 24.6675 143.485 24.8077 142.836 24.8077C141.789 24.8077 141.006 24.5137 140.487 23.9256C139.974 23.3308 139.718 22.5205 139.718 21.4949V13.6385H142.425ZM153.53 14.859C153.892 14.3872 154.32 14.0145 154.812 13.741C155.311 13.4675 155.848 13.3308 156.422 13.3308C157.838 13.3308 158.863 13.8504 159.499 14.8897C160.135 15.9222 160.453 17.3068 160.453 19.0436C160.453 20.1581 160.289 21.1496 159.961 22.0179C159.633 22.8863 159.144 23.5701 158.494 24.0692C157.851 24.5615 157.062 24.8077 156.125 24.8077C154.942 24.8077 154.015 24.3598 153.345 23.4641L153.222 24.5H150.822V9.3L153.53 9.01282V14.859ZM155.427 22.7872C156.118 22.7872 156.658 22.4932 157.048 21.9051C157.438 21.3171 157.633 20.3735 157.633 19.0744C157.633 17.7 157.455 16.7393 157.099 16.1923C156.744 15.6385 156.255 15.3615 155.633 15.3615C155.181 15.3615 154.781 15.4983 154.433 15.7718C154.091 16.0453 153.79 16.3838 153.53 16.7872V21.6487C153.762 22.0111 154.036 22.2915 154.35 22.4897C154.665 22.688 155.024 22.7872 155.427 22.7872Z" fill="#062630"/>
</g>
<defs>
<clipPath id="clip0_122_594">
<rect width="161.857" height="36" fill="white"/>
</clipPath>
</defs>
</svg>
